<svg xmlns="http://www.w3.org/2000/svg" width="480" height="550" viewBox="0 0 480 550">
<rect width="100%" height="100%" fill="white"/>
<text x="240.0" y="32" text-anchor="middle" font-family="Arial" font-size="18" font-weight="700">Logistic Regression Sentiment Confusion Matrix</text>
<text x="285.0" y="90" text-anchor="middle" font-family="Arial" font-size="14">Predicted label</text>
<text x="20" y="345.0" text-anchor="middle" font-family="Arial" font-size="14" transform="rotate(-90 20 345.0)">True label</text>
<text x="175.0" y="160" text-anchor="middle" font-family="Arial" font-size="13">negative</text>
<text x="285.0" y="160" text-anchor="middle" font-family="Arial" font-size="13">neutral</text>
<text x="395.0" y="160" text-anchor="middle" font-family="Arial" font-size="13">positive</text>
<text x="105" y="240.0" text-anchor="end" font-family="Arial" font-size="13">negative</text>
<text x="105" y="350.0" text-anchor="end" font-family="Arial" font-size="13">neutral</text>
<text x="105" y="460.0" text-anchor="end" font-family="Arial" font-size="13">positive</text>
<rect x="120" y="180" width="110" height="110" fill="rgb(203,208,255)" stroke="#d0d7de"/>
<text x="175.0" y="241.0" text-anchor="middle" font-family="Arial" font-size="18" font-weight="700" fill="#111827">1067</text>
<rect x="230" y="180" width="110" height="110" fill="rgb(235,240,255)" stroke="#d0d7de"/>
<text x="285.0" y="241.0" text-anchor="middle" font-family="Arial" font-size="18" font-weight="700" fill="#111827">251</text>
<rect x="340" y="180" width="110" height="110" fill="rgb(242,247,255)" stroke="#d0d7de"/>
<text x="395.0" y="241.0" text-anchor="middle" font-family="Arial" font-size="18" font-weight="700" fill="#111827">57</text>
<rect x="120" y="290" width="110" height="110" fill="rgb(239,244,255)" stroke="#d0d7de"/>
<text x="175.0" y="351.0" text-anchor="middle" font-family="Arial" font-size="18" font-weight="700" fill="#111827">128</text>
<rect x="230" y="290" width="110" height="110" fill="rgb(95,100,255)" stroke="#d0d7de"/>
<text x="285.0" y="351.0" text-anchor="middle" font-family="Arial" font-size="18" font-weight="700" fill="#111827">3815</text>
<rect x="340" y="290" width="110" height="110" fill="rgb(210,215,255)" stroke="#d0d7de"/>
<text x="395.0" y="351.0" text-anchor="middle" font-family="Arial" font-size="18" font-weight="700" fill="#111827">870</text>
<rect x="120" y="400" width="110" height="110" fill="rgb(244,249,255)" stroke="#d0d7de"/>
<text x="175.0" y="461.0" text-anchor="middle" font-family="Arial" font-size="18" font-weight="700" fill="#111827">21</text>
<rect x="230" y="400" width="110" height="110" fill="rgb(198,203,255)" stroke="#d0d7de"/>
<text x="285.0" y="461.0" text-anchor="middle" font-family="Arial" font-size="18" font-weight="700" fill="#111827">1185</text>
<rect x="340" y="400" width="110" height="110" fill="rgb(112,117,255)" stroke="#d0d7de"/>
<text x="395.0" y="461.0" text-anchor="middle" font-family="Arial" font-size="18" font-weight="700" fill="#111827">3361</text>
</svg>